<?xml version="1.0" encoding="UTF-8"?>
<svg version="1.1" xmlns="http://www.w3.org/2000/svg" width="64" height="64">
<path d="M0 0 C1.0209375 0.804375 1.0209375 0.804375 2.0625 1.625 C5.11636556 3.79225943 8.30710417 3.63676434 12 4 C13.84567164 5.84567164 13.64550098 8.82269829 14 11.3125 C14.59827412 15.71397161 14.59827412 15.71397161 15.5546875 20.04296875 C16.16330116 22.71766563 16.13184936 25.26025512 16.125 28 C16.12886719 29.546875 16.12886719 29.546875 16.1328125 31.125 C16.01863671 33.59657009 15.71350656 35.6442958 15 38 C15.66 38 16.32 38 17 38 C17 44.93 17 51.86 17 59 C10.4 59 3.8 59 -3 59 C-3 58.34 -3 57.68 -3 57 C-4.11375 57.495 -4.11375 57.495 -5.25 58 C-13.49580622 60.19888166 -22.32298704 59.91486013 -30 56 C-37.55965964 51.30779747 -42.00507433 45.93981595 -45.3125 37.75 C-46.73529433 29.98930367 -46.7073882 22.44531754 -44 15 C-44.99 14.67 -45.98 14.34 -47 14 C-47 9.38 -47 4.76 -47 0 C-45.70964844 -0.04898437 -44.41929688 -0.09796875 -43.08984375 -0.1484375 C-41.37237653 -0.22351803 -39.65492959 -0.29906354 -37.9375 -0.375 C-37.08994141 -0.4059375 -36.24238281 -0.436875 -35.36914062 -0.46875 C-4.04039719 -1.92027479 -4.04039719 -1.92027479 0 0 Z " fill="#D8ECF3" transform="translate(47,4)"/>
<path d="M0 0 C1.0209375 0.804375 1.0209375 0.804375 2.0625 1.625 C5.11636556 3.79225943 8.30710417 3.63676434 12 4 C13 5 13 5 13.0625 8.5625 C13.041875 9.696875 13.02125 10.83125 13 12 C11.28623169 12.03758423 11.28623169 12.03758423 9.5378418 12.07592773 C5.2006966 12.17182184 0.86364605 12.27155771 -3.47338867 12.37231445 C-5.33208974 12.41498994 -7.19081342 12.45669425 -9.04956055 12.49731445 C-21.71588627 12.77497951 -34.35215151 13.25847086 -47 14 C-47 9.38 -47 4.76 -47 0 C-45.70964844 -0.04898437 -44.41929688 -0.09796875 -43.08984375 -0.1484375 C-41.37237653 -0.22351803 -39.65492959 -0.29906354 -37.9375 -0.375 C-37.08994141 -0.4059375 -36.24238281 -0.436875 -35.36914062 -0.46875 C-4.04039719 -1.92027479 -4.04039719 -1.92027479 0 0 Z " fill="#8AC9D0" transform="translate(47,4)"/>
<path d="M0 0 C6.6 0 13.2 0 20 0 C20 6.93 20 13.86 20 21 C13.4 21 6.8 21 0 21 C0 14.07 0 7.14 0 0 Z " fill="#50B9EC" transform="translate(44,42)"/>
<path d="M0 0 C14.19 0 28.38 0 43 0 C43 2.31 43 4.62 43 7 C28.81 7 14.62 7 0 7 C0 4.69 0 2.38 0 0 Z " fill="#FEFEFF" transform="translate(12,19)"/>
<path d="M0 0 C1 1 1 1 1 7 C-12.53 7 -26.06 7 -40 7 C-40 5.02 -40 3.04 -40 1 C-35.42850903 0.85619672 -30.8569763 0.71383119 -26.28540039 0.57275391 C-24.73265395 0.52463927 -23.17991927 0.47614297 -21.62719727 0.42724609 C-19.3856099 0.35672424 -17.14398272 0.28760959 -14.90234375 0.21875 C-14.21663803 0.19687622 -13.53093231 0.17500244 -12.82444763 0.15246582 C-8.54789637 0.02276957 -4.27773433 -0.1061861 0 0 Z " fill="#2D417F" transform="translate(59,8)"/>
<path d="M0 0 C1.65 1.65 3.3 3.3 5 5 C-5.89 5 -16.78 5 -28 5 C-28 3.02 -28 1.04 -28 -1 C-19.22230159 -4.19189033 -8.35941838 -4.70117003 0 0 Z " fill="#F2A816" transform="translate(47,4)"/>
<path d="M0 0 C0.99 0 1.98 0 3 0 C3.33 1.32 3.66 2.64 4 4 C7.96 4 11.92 4 16 4 C16 6.97 16 9.94 16 13 C12.04 13 8.08 13 4 13 C3.67 15.64 3.34 18.28 3 21 C2.01 21 1.02 21 0 21 C0 14.07 0 7.14 0 0 Z " fill="#33A7E0" transform="translate(44,42)"/>
<path d="M0 0 C9.9 0 19.8 0 30 0 C30 1.32 30 2.64 30 4 C21.96841124 7.569595 12.95852895 6.80663309 4.83984375 3.94921875 C3 3 3 3 0 0 Z " fill="#FFAF0F" transform="translate(14,57)"/>
<path d="M0 0 C3.50944037 2.58590343 4.9957983 3.9915966 7 8 C-2.405 8.495 -2.405 8.495 -12 9 C-10 4 -10 4 -7 2 C-6.01 2.66 -5.02 3.32 -4 4 C-2.68 2.68 -1.36 1.36 0 0 Z " fill="#3BC480" transform="translate(12,9)"/>
<path d="M0 0 C0.33 0 0.66 0 1 0 C1 9.24 1 18.48 1 28 C-1 27 -1 27 -2.125 24.1875 C-4.28034395 15.80752274 -3.5969928 7.7934844 0 0 Z " fill="#FBB72E" transform="translate(4,18)"/>
<path d="M0 0 C6.93 0 13.86 0 21 0 C21 0.66 21 1.32 21 2 C18.69 2 16.38 2 14 2 C14 2.99 14 3.98 14 5 C9.38 5 4.76 5 0 5 C0 3.35 0 1.7 0 0 Z " fill="#F9B463" transform="translate(21,47)"/>
<path d="M0 0 C2 1 2 1 3.125 3.8125 C4.80166189 10.17589395 4.88464058 17.68268476 3 24 C2.01 24 1.02 24 0 24 C0 16.08 0 8.16 0 0 Z " fill="#FDB41F" transform="translate(59,18)"/>
<path d="M0 0 C4.62 0 9.24 0 14 0 C14 0.33 14 0.66 14 1 C10.37 1 6.74 1 3 1 C3 11.23 3 21.46 3 32 C-0 29 -0 29 -0.34057617 25.99731445 C-0.32486572 24.7980835 -0.30915527 23.59885254 -0.29296875 22.36328125 C-0.2784668 20.41518555 -0.2784668 20.41518555 -0.26367188 18.42773438 C-0.23860585 17.05598361 -0.21321101 15.68423882 -0.1875 14.3125 C-0.1724502 12.92905076 -0.1587623 11.54558599 -0.14648438 10.16210938 C-0.11107458 6.77457274 -0.05726701 3.38723763 0 0 Z " fill="#D7EAF8" transform="translate(4,17)"/>
<path d="M0 0 C2.5625 0.1875 2.5625 0.1875 4.5625 2.1875 C5.4188027 4.81983792 5.95179927 7.48296818 6.5625 10.1875 C3.2625 9.1975 -0.0375 8.2075 -3.4375 7.1875 C-3.48004356 5.18795254 -3.47830783 3.18708364 -3.4375 1.1875 C-2.4375 0.1875 -2.4375 0.1875 0 0 Z " fill="#4B789D" transform="translate(48.4375,28.8125)"/>
<path d="M0 0 C0.99 0 1.98 0 3 0 C3 6.93 3 13.86 3 21 C2.01 21 1.02 21 0 21 C0 14.07 0 7.14 0 0 Z " fill="#299FD8" transform="translate(44,42)"/>
<path d="M0 0 C2.97 0 5.94 0 9 0 C9 2.31 9 4.62 9 7 C6.03 7 3.06 7 0 7 C0 4.69 0 2.38 0 0 Z " fill="#FE9A25" transform="translate(46,19)"/>
<path d="M0 0 C2.31 0 4.62 0 7 0 C7 1.98 7 3.96 7 6 C4.69 6 2.38 6 0 6 C0 4.02 0 2.04 0 0 Z " fill="#F89527" transform="translate(12,46)"/>
<path d="M0 0 C1.98 0 3.96 0 6 0 C6 2.31 6 4.62 6 7 C4.02 7 2.04 7 0 7 C0 4.69 0 2.38 0 0 Z " fill="#18A096" transform="translate(12,37)"/>
<path d="M0 0 C1.98 0 3.96 0 6 0 C6 1.98 6 3.96 6 6 C4.02 6.33 2.04 6.66 0 7 C0 4.69 0 2.38 0 0 Z " fill="#41AEE5" transform="translate(12,29)"/>
<path d="M0 0 C0.66 0 1.32 0 2 0 C2.66 2.64 3.32 5.28 4 8 C1.03 7.01 -1.94 6.02 -5 5 C-3.68 4.34 -2.36 3.68 -1 3 C-0.67 2.01 -0.34 1.02 0 0 Z " fill="#3F4F7E" transform="translate(51,31)"/>
<path d="M0 0 C0.99 0 1.98 0 3 0 C3 1.98 3 3.96 3 6 C2.01 6 1.02 6 0 6 C0 4.02 0 2.04 0 0 Z " fill="#04AF8F" transform="translate(15,38)"/>
</svg>
